<?xml version="1.0" encoding="utf-8"?>
<!-- Generator: Adobe Illustrator 22.1.0, SVG Export Plug-In . SVG Version: 6.00 Build 0)  -->
<svg version="1.1" id="圖層_1" xmlns="http://www.w3.org/2000/svg" xmlns:xlink="http://www.w3.org/1999/xlink" x="0px" y="0px"
	 viewBox="0 0 300 300" style="enable-background:new 0 0 300 300;" xml:space="preserve">
<style type="text/css">
	.st0{fill:#F7F3E8;}
	.st1{fill:#F8B32B;}
</style>
<g>
	<g>
		<path class="st0" d="M1.8,159.3c1.2-36.8,12.1-69.9,39-96.1c20.6-20.1,46.2-30.9,74-36.5c19.3-3.9,38.6-5.6,58.2-0.7
			c21.4,5.3,39.3,16.3,52.7,33.2c17.4,22.1,36.4,42.7,54.3,64.4c11.5,13.9,18.7,30,19,48.4c0.3,21.8-8.6,40.2-22.9,56.1
			c-13.3,14.8-28.6,27.5-45,38.7c-11.3,7.7-24.4,10.1-37.8,11.2c-35.7,2.9-69-5.8-101.6-19.3c-22.9-9.5-44.7-20.7-63-37.7
			C15.1,208.3,0.9,186.8,1.8,159.3z M205.3,159.1c-0.5-5.2-0.8-10.4-1.6-15.6c-4.6-29.9-24.2-49.4-52.3-51.5
			c-20.5-1.6-37.9,6.4-52.8,19.9c-15.8,14.4-21.4,32-14.6,52.7c7.6,22.9,23.4,38.6,45.7,46.8C164.5,224.2,207,198.7,205.3,159.1z"/>
		<path class="st1" d="M205.3,159.1c1.7,39.6-40.8,65.2-75.7,52.3c-22.3-8.2-38.1-23.8-45.7-46.8c-6.9-20.7-1.3-38.3,14.6-52.7
			c14.9-13.5,32.3-21.5,52.8-19.9c28.2,2.1,47.7,21.7,52.3,51.5C204.5,148.6,204.7,153.9,205.3,159.1z"/>
	</g>
</g>
</svg>
