<svg id="圖層_1" data-name="圖層 1" xmlns="http://www.w3.org/2000/svg" xmlns:xlink="http://www.w3.org/1999/xlink" viewBox="0 0 1920 1920"><defs><style>.cls-1{fill:url(#未命名漸層_5);}.cls-2{fill:url(#未命名漸層_5-2);}.cls-3{fill:url(#未命名漸層_5-3);}.cls-4{fill:url(#未命名漸層_5-4);}.cls-5{fill:url(#未命名漸層_5-5);}.cls-6{fill:url(#未命名漸層_5-6);}</style><radialGradient id="未命名漸層_5" cx="1229.69" cy="5588.01" r="1228.87" gradientTransform="matrix(-0.5, -0.87, 0.87, -0.5, -3264.52, 4818.95)" gradientUnits="userSpaceOnUse"><stop offset="0" stop-color="#eaab8c"/><stop offset="1" stop-color="#b8f1ed" stop-opacity="0"/></radialGradient><radialGradient id="未命名漸層_5-2" cx="-15.11" cy="6833.04" r="1228.87" gradientTransform="matrix(-0.87, -0.5, 0.5, -0.87, -2469.61, 6870.03)" xlink:href="#未命名漸層_5"/><radialGradient id="未命名漸層_5-3" cx="-1715.65" cy="7288.87" r="1228.87" gradientTransform="translate(-755.65 8248.87) rotate(180)" xlink:href="#未命名漸層_5"/><radialGradient id="未命名漸層_5-4" cx="-3416.27" cy="6833.35" r="1228.87" gradientTransform="translate(1418.1 8585.99) rotate(150)" xlink:href="#未命名漸層_5"/><radialGradient id="未命名漸層_5-5" cx="-4661.3" cy="5588.55" r="1228.87" gradientTransform="translate(3469.18 7791.08) rotate(120)" xlink:href="#未命名漸層_5"/><radialGradient id="未命名漸層_5-6" cx="-5117.13" cy="3888.02" r="1228.87" gradientTransform="translate(4848.02 6077.13) rotate(90)" xlink:href="#未命名漸層_5"/></defs><title>ray</title><polyline class="cls-1" points="1887.29 711.53 32.71 1208.47 128.62 1440 1791.38 480"/><polyline class="cls-2" points="1638.82 281.18 281.18 1638.82 480 1791.38 1440 128.62"/><polyline class="cls-3" points="1208.47 32.71 711.53 1887.29 960 1920 960 0"/><polyline class="cls-4" points="711.53 32.71 1208.47 1887.29 1440 1791.38 480 128.62"/><polyline class="cls-5" points="281.18 281.18 1638.82 1638.82 1791.38 1440 128.62 480"/><polyline class="cls-6" points="32.71 711.53 1887.29 1208.47 1920 960 0 960"/></svg>