<?xml version="1.0" encoding="iso-8859-1"?>
<!-- Generator: Adobe Illustrator 21.1.0, SVG Export Plug-In . SVG Version: 6.00 Build 0)  -->
<svg version="1.1" id="&#x5716;&#x5C64;_1" xmlns="http://www.w3.org/2000/svg" xmlns:xlink="http://www.w3.org/1999/xlink" x="0px"
	 y="0px" viewBox="0 0 566.93 566.93" style="enable-background:new 0 0 566.93 566.93;" xml:space="preserve">
<path style="fill-rule:evenodd;clip-rule:evenodd;fill:#5C4037;" d="M284.501,301c61.412,0,111.5-50.088,111.5-111.5
	c0-61.412-50.088-111.5-111.5-111.5c-61.412,0-111.5,50.088-111.5,111.5C173.001,250.912,223.088,301,284.501,301z"/>
<path style="fill-rule:evenodd;clip-rule:evenodd;fill:#8F6C5D;" d="M284.427,281.193c50.725,0,92.097-41.371,92.097-92.096
	c0-50.725-41.371-92.096-92.097-92.096c-50.725,0-92.096,41.371-92.096,92.096C192.331,239.821,233.702,281.193,284.427,281.193z"/>
<path style="fill:#FFFFFF;" d="M312.615,163.406L312.615,163.406c5.937,8.002,8.068,17.653,6.715,26.787
	c-1.353,9.134-6.191,17.753-14.193,23.689l0,0c-8.002,5.937-17.653,8.068-26.787,6.715c-9.134-1.353-17.753-6.191-23.69-14.193
	c-5.937-8.002-8.068-17.653-6.715-26.787c1.353-9.134,6.191-17.753,14.193-23.69c8.002-5.937,17.653-8.068,26.787-6.715
	C298.06,150.566,306.678,155.404,312.615,163.406L312.615,163.406z M309.797,165.497L309.797,165.497
	c-5.359-7.223-13.139-11.591-21.386-12.812s-16.958,0.702-24.182,6.062c-7.223,5.359-11.591,13.139-12.812,21.385
	c-1.222,8.246,0.702,16.958,6.062,24.182c5.359,7.223,13.139,11.591,21.385,12.813c8.246,1.222,16.958-0.702,24.182-6.062l0,0
	c7.223-5.359,11.591-13.139,12.812-21.385S315.156,172.72,309.797,165.497z"/>
<g>
	<polygon style="fill:#FFFFFF;" points="314.954,207.026 341.773,227.393 337.498,233.399 310.68,213.033 	"/>
</g>
</svg>
