<?xml version="1.0" encoding="utf-8"?>
<!-- Generator: Adobe Illustrator 21.1.0, SVG Export Plug-In . SVG Version: 6.00 Build 0)  -->
<svg version="1.1" id="圖層_1" xmlns="http://www.w3.org/2000/svg" xmlns:xlink="http://www.w3.org/1999/xlink" x="0px" y="0px"
	 viewBox="0 0 226 226.7" style="enable-background:new 0 0 226 226.7;" xml:space="preserve">
<style type="text/css">
	.st0{fill:#5C4037;}
	.st1{fill:#8F6C5D;}
	.st2{fill:#FFFFFF;}
</style>
<path class="st0" d="M113.1,225.1c61.4,0,111.5-50.1,111.5-111.5S174.5,2.1,113.1,2.1S1.6,52.2,1.6,113.6S51.7,225.1,113.1,225.1z"
	/>
<path class="st1" d="M113.1,205.3c50.7,0,92.1-41.4,92.1-92.1s-41.4-92.1-92.1-92.1C62.3,21.1,21,62.4,21,113.2
	C21,163.9,62.3,205.3,113.1,205.3z"/>
<path class="st2" d="M141.2,87.5L141.2,87.5c5.9,8,8.1,17.7,6.7,26.8s-6.2,17.8-14.2,23.7l0,0c-8,5.9-17.7,8.1-26.8,6.7
	s-17.8-6.2-23.7-14.2c-5.9-8-8.1-17.7-6.7-26.8S82.8,85.9,90.8,80c8-5.9,17.7-8.1,26.8-6.7C126.7,74.6,135.3,79.5,141.2,87.5
	L141.2,87.5z M138.4,89.6L138.4,89.6c-5.4-7.2-13.1-11.6-21.4-12.8s-17,0.7-24.2,6.1C85.6,88.2,81.3,96,80,104.2
	c-1.2,8.2,0.7,17,6.1,24.2c5.4,7.2,13.1,11.6,21.4,12.8c8.2,1.2,17-0.7,24.2-6.1l0,0c7.2-5.4,11.6-13.1,12.8-21.4
	S143.8,96.8,138.4,89.6z"/>
<g>
	<polygon class="st2" points="143.6,131.1 170.4,151.5 166.1,157.5 139.3,137.1 	"/>
</g>
</svg>
