<svg xmlns="http://www.w3.org/2000/svg" viewBox="0 0 370 600"><defs><style>.cls-1{fill:#dbceca;}.cls-2{fill:#c2b8b7;}.cls-3{fill:#5cb3ff;}.cls-4{fill:#f3fbff;opacity:0.46;}</style></defs><title>itemB</title><g id="圖層_2" data-name="圖層 2"><g id="圖層_1-2" data-name="圖層 1"><path class="cls-1" d="M370,5.4c-8.82,0-8.82-5.4-17.64-5.4s-8.82,5.4-17.64,5.4S325.9,0,317.08,0s-8.81,5.4-17.62,5.4S290.66,0,281.84,0,273,5.4,264.22,5.4,255.41,0,246.6,0,237.79,5.4,229,5.4,220.18,0,211.37,0s-8.8,5.4-17.6,5.4S185,0,176.15,0s-8.81,5.4-17.62,5.4S149.72,0,140.91,0s-8.81,5.4-17.62,5.4S114.48,0,105.68,0,96.87,5.4,88.06,5.4,79.26,0,70.45,0,61.64,5.4,52.84,5.4,44,0,35.22,0s-8.8,5.4-17.61,5.4S8.81,0,0,0V22.94H370Z"/><path class="cls-2" d="M334.71,16.87c-8.82,0-8.82-5.4-17.63-5.4s-8.81,5.4-17.62,5.4-8.81-5.4-17.62-5.4-8.81,5.4-17.62,5.4-8.81-5.4-17.62-5.4-8.81,5.4-17.62,5.4-8.81-5.4-17.61-5.4-8.8,5.4-17.6,5.4-8.81-5.4-17.62-5.4-8.81,5.4-17.62,5.4-8.81-5.4-17.62-5.4-8.81,5.4-17.62,5.4-8.81-5.4-17.62-5.4-8.81,5.4-17.61,5.4-8.81-5.4-17.62-5.4-8.81,5.4-17.61,5.4-8.81-5.4-17.61-5.4-8.8,5.4-17.61,5.4S8.81,11.47,0,11.47V22.94H370V16.87c-8.82,0-8.82-5.4-17.64-5.4S343.54,16.87,334.71,16.87Z"/><path class="cls-1" d="M0,594.6c8.82,0,8.82,5.4,17.64,5.4s8.82-5.4,17.64-5.4S44.1,600,52.92,600s8.81-5.4,17.62-5.4,8.81,5.4,17.62,5.4,8.81-5.4,17.62-5.4,8.81,5.4,17.62,5.4,8.81-5.4,17.62-5.4,8.81,5.4,17.61,5.4,8.8-5.4,17.6-5.4S185,600,193.85,600s8.81-5.4,17.62-5.4,8.81,5.4,17.62,5.4,8.81-5.4,17.62-5.4,8.81,5.4,17.62,5.4,8.81-5.4,17.61-5.4,8.81,5.4,17.62,5.4,8.81-5.4,17.61-5.4S326,600,334.78,600s8.8-5.4,17.61-5.4S361.19,600,370,600V577.06H0Z"/><path class="cls-2" d="M35.29,583.13c8.82,0,8.82,5.4,17.63,5.4s8.81-5.4,17.62-5.4,8.81,5.4,17.62,5.4,8.81-5.4,17.62-5.4,8.81,5.4,17.62,5.4,8.81-5.4,17.62-5.4,8.81,5.4,17.61,5.4,8.8-5.4,17.6-5.4,8.81,5.4,17.62,5.4,8.81-5.4,17.62-5.4,8.81,5.4,17.62,5.4,8.81-5.4,17.62-5.4,8.81,5.4,17.62,5.4,8.81-5.4,17.61-5.4,8.81,5.4,17.62,5.4,8.81-5.4,17.61-5.4,8.81,5.4,17.61,5.4,8.8-5.4,17.61-5.4,8.81,5.4,17.61,5.4V577.06H0v6.07c8.82,0,8.82,5.4,17.64,5.4S26.46,583.13,35.29,583.13Z"/><path class="cls-3" d="M370,572.88,359.49,548.2h0s-6.2-277-6.2-305.39,6.2-189.46,6.2-189.46L370,28.68V22.94H0v5.74H0L10.51,53.35s6.13,161.1,6.13,189.46S10.51,548.2,10.51,548.2L0,572.88H0v5.74H370v-5.74Z"/><path class="cls-4" d="M27.4,578.63c-1.38,0-2.49-2.94-2.52-6.7L21,84.82,13.12,32.75c-.54-3.57.11-7.73,1.45-9.28s2.86.08,3.4,3.65l8,53.24a17.58,17.58,0,0,1,.19,2.46l3.93,488.4c0,3.89-1.11,7.21-2.56,7.4Z"/></g></g></svg>