<svg id="圖層_1" data-name="圖層 1" xmlns="http://www.w3.org/2000/svg" viewBox="0 0 360 360"><defs><style>.cls-1{fill:#f8b62d;opacity:0.78;}</style></defs><title>cpGlow</title><path class="cls-1" d="M230,541.13l72.51,6L259.14,491l65.13-28.73-67.41-29.73c-.4-1.53-.83-3.06-1.3-4.57l42.16-60.92-71.1,9.64,7.65-70.36-59.44,43.53c-1.08-.29-2.16-.56-3.25-.83L139.5,281.21l-27.59,67.37L54.27,306.36l8,73.3c-.6.59-1.18,1.18-1.76,1.79l-74.42-6.11L30.66,433-35.73,462.3,31.68,492c.27,1,.55,2,.84,3L-9.17,555.34l71.33-9.68-7.89,72.58,59.45-43.53c1.45.4,2.92.77,4.4,1.11L149,641.21l26.9-65.69,58.33,42.72-8-73.29C227.55,543.7,228.78,542.43,230,541.13Z" transform="translate(35.73 -281.21)"/></svg>