<svg id="圖層_1" data-name="圖層 1" xmlns="http://www.w3.org/2000/svg" viewBox="0 0 840 415"><defs><style>.cls-1{fill:#dbceca;}.cls-2{fill:#c2b8b7;}.cls-3{fill:#ea5a5a;}.cls-4{fill:#f3fbff;}</style></defs><title>findingIp</title><path class="cls-1" d="M1550.77,2920c0-9.89,7.56-9.89,7.56-19.79s-7.56-9.89-7.56-19.79,7.56-9.89,7.56-19.78-7.56-9.88-7.56-19.76,7.56-9.88,7.56-19.77-7.56-9.88-7.56-19.76,7.56-9.88,7.56-19.76-7.56-9.88-7.56-19.76,7.56-9.88,7.56-19.75-7.56-9.87-7.56-19.74,7.56-9.88,7.56-19.76-7.56-9.88-7.56-19.76,7.56-9.88,7.56-19.76-7.56-9.88-7.56-19.76,7.56-9.88,7.56-19.76-7.56-9.88-7.56-19.75,7.56-9.88,7.56-19.76-7.56-9.88-7.56-19.75,7.56-9.88,7.56-19.75-7.56-9.88-7.56-19.75,7.56-9.88,7.56-19.76h-32.12v415Z" transform="translate(-718.33 -2505)"/><path class="cls-2" d="M1534.71,2880.42c0-9.89,7.56-9.89,7.56-19.78s-7.56-9.88-7.56-19.76,7.56-9.88,7.56-19.77-7.56-9.88-7.56-19.76,7.56-9.88,7.56-19.76-7.56-9.88-7.56-19.76,7.56-9.88,7.56-19.75-7.56-9.87-7.56-19.74,7.56-9.88,7.56-19.76-7.56-9.88-7.56-19.76,7.56-9.88,7.56-19.76-7.56-9.88-7.56-19.76,7.56-9.88,7.56-19.76-7.56-9.88-7.56-19.75,7.56-9.88,7.56-19.76-7.56-9.88-7.56-19.75,7.56-9.88,7.56-19.75-7.56-9.88-7.56-19.75,7.56-9.88,7.56-19.76h-16.06v415h8.5c0-9.89,7.56-9.89,7.56-19.79S1534.71,2890.32,1534.71,2880.42Z" transform="translate(-718.33 -2505)"/><path class="cls-1" d="M725.89,2505c0,9.89-7.56,9.89-7.56,19.79s7.56,9.89,7.56,19.79-7.56,9.89-7.56,19.77,7.56,9.88,7.56,19.76-7.56,9.88-7.56,19.77,7.56,9.88,7.56,19.76-7.56,9.88-7.56,19.76,7.56,9.88,7.56,19.76-7.56,9.88-7.56,19.75,7.56,9.87,7.56,19.74-7.56,9.88-7.56,19.76,7.56,9.88,7.56,19.76-7.56,9.88-7.56,19.76,7.56,9.88,7.56,19.76-7.56,9.88-7.56,19.76,7.56,9.88,7.56,19.75-7.56,9.88-7.56,19.76,7.56,9.88,7.56,19.75-7.56,9.88-7.56,19.75,7.56,9.88,7.56,19.75-7.56,9.88-7.56,19.76h32.12V2505Z" transform="translate(-718.33 -2505)"/><path class="cls-2" d="M741.95,2544.58c0,9.89-7.56,9.89-7.56,19.77s7.56,9.88,7.56,19.76-7.56,9.88-7.56,19.77,7.56,9.88,7.56,19.76-7.56,9.88-7.56,19.76,7.56,9.88,7.56,19.76-7.56,9.88-7.56,19.75,7.56,9.87,7.56,19.74-7.56,9.88-7.56,19.76,7.56,9.88,7.56,19.76-7.56,9.88-7.56,19.76,7.56,9.88,7.56,19.76-7.56,9.88-7.56,19.76,7.56,9.88,7.56,19.75-7.56,9.88-7.56,19.76,7.56,9.88,7.56,19.75-7.56,9.88-7.56,19.75,7.56,9.88,7.56,19.75-7.56,9.88-7.56,19.76h16.06V2505h-8.5c0,9.89-7.56,9.89-7.56,19.79S741.95,2534.68,741.95,2544.58Z" transform="translate(-718.33 -2505)"/><path class="cls-3" d="M756.3,2920l34.54-11.79h0s387.83-7,427.54-7,265.25,7,265.25,7l34.54,11.79h8V2505h-8l-34.54,11.79s-225.54,6.88-265.25,6.88-427.54-6.88-427.54-6.88L756.3,2505h-8v415h8Z" transform="translate(-718.33 -2505)"/><rect class="cls-4" x="54.33" y="25.51" width="731.34" height="361.4" rx="10" ry="10"/></svg>